<svg xmlns="http://www.w3.org/2000/svg" width="23.567" height="23.568" viewBox="0 0 23.567 23.568"><path d="M173.766,71.759h0l-.109.029.109-.03.339-1.267,1.249-4.66-17.637,4.726,4.339,4.339h0l-.175.047-5.755,1.542L169.039,89.4l1.589-5.93h0l.867.866,3.472,3.472,4.725-17.637Zm-12.274-.189,11.1-2.974-1,3.747h0v0h0l-2.095.561-3.982,1.067-1.272.341h0l-.044-.045Zm6.535,14.054L159.9,77.5l2.479-.664,1.229-.329.043-.012,5.38,5.38ZM171,74.526l-1.383,5.164,0,0V79.7l0,0-3.784-3.784h0l.207-.056,3.319-.89L171,74.523Zm2.956,9.508L172.3,82.372l-.544-.544-.538-.538h0l1.629-6.076.341-1.271v0h0l.925-.248,2.823-.756Z" transform="translate(-156.127 -65.832)" fill="#76ba53"/></svg>